<?xml version="1.0" encoding="UTF-8" standalone="no"?>
<!-- Created with Inkscape (http://www.inkscape.org/) -->

<svg
   version="1.1"
   id="svg132"
   width="1889.7638"
   height="453.5433"
   viewBox="0 0 1889.7638 453.5433"
   xmlns="http://www.w3.org/2000/svg"
   xmlns:svg="http://www.w3.org/2000/svg">
  <defs
     id="defs136">
    <clipPath
       clipPathUnits="userSpaceOnUse"
       id="clipPath150">
      <path
         d="M 46,32 H 328 V 303 H 46 Z"
         id="path148" />
    </clipPath>
    <clipPath
       clipPathUnits="userSpaceOnUse"
       id="clipPath156">
      <path
         d="m 46.402,167.59 c 0,74.523 68.223,134.969 152.403,134.969 52.418,0 98.648,-23.442 126.062,-59.145 h -54.66 c -19.605,16.477 -45.633,26.504 -74.172,26.504 -9.742,0 -19.176,-1.156 -28.176,-3.371 C 120.5,255.012 85.59,215.055 85.59,167.57 c 0,-2.648 0.121,-5.273 0.312,-7.879 v -0.019 c 1.168,-14.141 5.446,-27.473 12.176,-39.402 18.438,-32.704 55.379,-55.028 97.957,-55.028 30.664,0 58.387,11.555 78.399,30.242 h 53.203 C 300.629,57.695 253.012,32.598 198.805,32.598 114.625,32.598 46.402,93.043 46.402,167.59"
         id="path154" />
    </clipPath>
    <clipPath
       clipPathUnits="userSpaceOnUse"
       id="clipPath166">
      <path
         d="M 0,0 H 1418 V 341 H 0 Z"
         id="path164" />
    </clipPath>
    <clipPath
       clipPathUnits="userSpaceOnUse"
       id="clipPath176">
      <path
         d="m 46.402,167.59 c 0,74.523 68.223,134.969 152.403,134.969 52.418,0 98.648,-23.442 126.062,-59.145 h -54.66 c -19.605,16.477 -45.633,26.504 -74.172,26.504 -9.742,0 -19.176,-1.156 -28.176,-3.371 C 120.5,255.012 85.59,215.055 85.59,167.57 c 0,-2.648 0.121,-5.273 0.312,-7.879 v -0.019 c 1.168,-14.141 5.446,-27.473 12.176,-39.402 18.438,-32.704 55.379,-55.028 97.957,-55.028 30.664,0 58.387,11.555 78.399,30.242 h 53.203 C 300.629,57.695 253.012,32.598 198.805,32.598 114.625,32.598 46.402,93.043 46.402,167.59"
         id="path174" />
    </clipPath>
    <linearGradient
       x1="0"
       y1="0"
       x2="1"
       y2="0"
       gradientUnits="userSpaceOnUse"
       gradientTransform="matrix(0,-269.96142,311.84831,0,187.02013,302.55933)"
       spreadMethod="pad"
       id="linearGradient198">
      <stop
         style="stop-opacity:1;stop-color:#2f3792"
         offset="0"
         id="stop180" />
      <stop
         style="stop-opacity:1;stop-color:#344ca7"
         offset="0.371368"
         id="stop182" />
      <stop
         style="stop-opacity:1;stop-color:#344ca7"
         offset="0.385291"
         id="stop184" />
      <stop
         style="stop-opacity:1;stop-color:#283176"
         offset="0.488231"
         id="stop186" />
      <stop
         style="stop-opacity:1;stop-color:#283176"
         offset="0.50998"
         id="stop188" />
      <stop
         style="stop-opacity:1;stop-color:#3871c1"
         offset="0.510404"
         id="stop190" />
      <stop
         style="stop-opacity:1;stop-color:#3871c1"
         offset="0.512092"
         id="stop192" />
      <stop
         style="stop-opacity:1;stop-color:#8ad9f8"
         offset="0.880318"
         id="stop194" />
      <stop
         style="stop-opacity:1;stop-color:#8ad9f8"
         offset="1"
         id="stop196" />
    </linearGradient>
    <clipPath
       clipPathUnits="userSpaceOnUse"
       id="clipPath208">
      <path
         d="M 0,0 H 1417 V 340 H 0 Z"
         id="path206" />
    </clipPath>
    <clipPath
       clipPathUnits="userSpaceOnUse"
       id="clipPath218">
      <path
         d="M 0,0 H 1418 V 341 H 0 Z"
         id="path216" />
    </clipPath>
    <clipPath
       clipPathUnits="userSpaceOnUse"
       id="clipPath230">
      <path
         d="M 0,0 H 1418 V 341 H 0 Z"
         id="path228" />
    </clipPath>
    <clipPath
       clipPathUnits="userSpaceOnUse"
       id="clipPath246">
      <path
         d="M 264,117 H 383 V 223 H 264 Z"
         id="path244" />
    </clipPath>
    <clipPath
       clipPathUnits="userSpaceOnUse"
       id="clipPath252">
      <path
         d="m 264.496,170.188 c 0,28.238 25.977,52.519 58.594,52.519 17.867,0 44.254,-8.094 55.265,-33.816 h -21.609 c -5.191,8.632 -16.828,16.726 -32.824,16.726 -14.543,0 -32.414,-7.914 -37.817,-27.156 h 95.368 c 0.207,-1.258 0.621,-6.297 0.621,-9.535 -0.207,-29.137 -27.422,-51.078 -58.59,-51.078 -32.41,0 -59.008,22.484 -59.008,52.34 m 58.801,-35.254 c 20.777,0 36.152,14.57 37.191,29.136 h -74.383 c 1.04,-14.566 16.415,-29.136 37.192,-29.136"
         id="path250" />
    </clipPath>
    <clipPath
       clipPathUnits="userSpaceOnUse"
       id="clipPath262">
      <path
         d="M 0,0 H 1418 V 341 H 0 Z"
         id="path260" />
    </clipPath>
    <clipPath
       clipPathUnits="userSpaceOnUse"
       id="clipPath272">
      <path
         d="m 264.496,170.188 c 0,28.238 25.977,52.519 58.594,52.519 17.867,0 44.254,-8.094 55.265,-33.816 h -21.609 c -5.191,8.632 -16.828,16.726 -32.824,16.726 -14.543,0 -32.414,-7.914 -37.817,-27.156 h 95.368 c 0.207,-1.258 0.621,-6.297 0.621,-9.535 -0.207,-29.137 -27.422,-51.078 -58.59,-51.078 -32.41,0 -59.008,22.484 -59.008,52.34 m 58.801,-35.254 c 20.777,0 36.152,14.57 37.191,29.136 h -74.383 c 1.04,-14.566 16.415,-29.136 37.192,-29.136"
         id="path270" />
    </clipPath>
    <linearGradient
       x1="0"
       y1="0"
       x2="1"
       y2="0"
       gradientUnits="userSpaceOnUse"
       gradientTransform="matrix(0,-104.85811,121.12777,0,323.29653,222.70611)"
       spreadMethod="pad"
       id="linearGradient294">
      <stop
         style="stop-opacity:1;stop-color:#2f3792"
         offset="0"
         id="stop276" />
      <stop
         style="stop-opacity:1;stop-color:#344ca7"
         offset="0.371368"
         id="stop278" />
      <stop
         style="stop-opacity:1;stop-color:#344ca7"
         offset="0.385291"
         id="stop280" />
      <stop
         style="stop-opacity:1;stop-color:#283176"
         offset="0.488231"
         id="stop282" />
      <stop
         style="stop-opacity:1;stop-color:#283176"
         offset="0.50998"
         id="stop284" />
      <stop
         style="stop-opacity:1;stop-color:#3871c1"
         offset="0.510404"
         id="stop286" />
      <stop
         style="stop-opacity:1;stop-color:#3871c1"
         offset="0.512092"
         id="stop288" />
      <stop
         style="stop-opacity:1;stop-color:#8ad9f8"
         offset="0.880318"
         id="stop290" />
      <stop
         style="stop-opacity:1;stop-color:#8ad9f8"
         offset="1"
         id="stop292" />
    </linearGradient>
    <clipPath
       clipPathUnits="userSpaceOnUse"
       id="clipPath304">
      <path
         d="M 403,117 H 506 V 221 H 403 Z"
         id="path302" />
    </clipPath>
    <clipPath
       clipPathUnits="userSpaceOnUse"
       id="clipPath310">
      <path
         d="m 424.055,131.156 h -0.414 v -10.613 h -20.157 v 99.645 h 21.614 v -54.317 c 0,-19.965 12.254,-30.937 30.332,-30.937 28.672,0 28.672,23.382 28.672,31.117 v 54.137 h 21.609 v -58.997 c -0.211,-11.148 -2.703,-19.062 -7.273,-25.539 -8.309,-11.152 -22.856,-17.804 -40.723,-17.804 -4.57,0 -22.024,0 -33.66,13.308"
         id="path308" />
    </clipPath>
    <clipPath
       clipPathUnits="userSpaceOnUse"
       id="clipPath320">
      <path
         d="M 0,0 H 1418 V 341 H 0 Z"
         id="path318" />
    </clipPath>
    <clipPath
       clipPathUnits="userSpaceOnUse"
       id="clipPath330">
      <path
         d="m 424.055,131.156 h -0.414 v -10.613 h -20.157 v 99.645 h 21.614 v -54.317 c 0,-19.965 12.254,-30.937 30.332,-30.937 28.672,0 28.672,23.382 28.672,31.117 v 54.137 h 21.609 v -58.997 c -0.211,-11.148 -2.703,-19.062 -7.273,-25.539 -8.309,-11.152 -22.856,-17.804 -40.723,-17.804 -4.57,0 -22.024,0 -33.66,13.308"
         id="path328" />
    </clipPath>
    <linearGradient
       x1="0"
       y1="0"
       x2="1"
       y2="0"
       gradientUnits="userSpaceOnUse"
       gradientTransform="matrix(0,-102.34068,118.21974,0,454.59835,220.18868)"
       spreadMethod="pad"
       id="linearGradient352">
      <stop
         style="stop-opacity:1;stop-color:#2f3792"
         offset="0"
         id="stop334" />
      <stop
         style="stop-opacity:1;stop-color:#344ca7"
         offset="0.371368"
         id="stop336" />
      <stop
         style="stop-opacity:1;stop-color:#344ca7"
         offset="0.385291"
         id="stop338" />
      <stop
         style="stop-opacity:1;stop-color:#283176"
         offset="0.488231"
         id="stop340" />
      <stop
         style="stop-opacity:1;stop-color:#283176"
         offset="0.50998"
         id="stop342" />
      <stop
         style="stop-opacity:1;stop-color:#3871c1"
         offset="0.510404"
         id="stop344" />
      <stop
         style="stop-opacity:1;stop-color:#3871c1"
         offset="0.512092"
         id="stop346" />
      <stop
         style="stop-opacity:1;stop-color:#8ad9f8"
         offset="0.880318"
         id="stop348" />
      <stop
         style="stop-opacity:1;stop-color:#8ad9f8"
         offset="1"
         id="stop350" />
    </linearGradient>
    <clipPath
       clipPathUnits="userSpaceOnUse"
       id="clipPath362">
      <path
         d="m 535.824,87.09 h 21.61 v 33.453 h -21.61 z m -15.582,33.453 h 56.098 v 17.09 h -56.098 z m 15.582,17.09 h 21.61 v 82.555 h -21.61 z"
         id="path360" />
    </clipPath>
    <clipPath
       clipPathUnits="userSpaceOnUse"
       id="clipPath372">
      <path
         d="M 0,0 H 1418 V 341 H 0 Z"
         id="path370" />
    </clipPath>
    <clipPath
       clipPathUnits="userSpaceOnUse"
       id="clipPath382">
      <path
         d="m 535.824,87.09 v 33.453 h -15.582 v 17.09 h 15.582 v 82.555 h 21.61 v -82.555 h 18.906 v -17.09 H 557.434 V 87.09 Z"
         id="path380" />
    </clipPath>
    <linearGradient
       x1="0"
       y1="0"
       x2="1"
       y2="0"
       gradientUnits="userSpaceOnUse"
       gradientTransform="matrix(0,-133.099,153.75049,0,548.29159,220.18868)"
       spreadMethod="pad"
       id="linearGradient404">
      <stop
         style="stop-opacity:1;stop-color:#2f3792"
         offset="0"
         id="stop386" />
      <stop
         style="stop-opacity:1;stop-color:#344ca7"
         offset="0.371368"
         id="stop388" />
      <stop
         style="stop-opacity:1;stop-color:#344ca7"
         offset="0.385291"
         id="stop390" />
      <stop
         style="stop-opacity:1;stop-color:#283176"
         offset="0.488231"
         id="stop392" />
      <stop
         style="stop-opacity:1;stop-color:#283176"
         offset="0.50998"
         id="stop394" />
      <stop
         style="stop-opacity:1;stop-color:#3871c1"
         offset="0.510404"
         id="stop396" />
      <stop
         style="stop-opacity:1;stop-color:#3871c1"
         offset="0.512092"
         id="stop398" />
      <stop
         style="stop-opacity:1;stop-color:#8ad9f8"
         offset="0.880318"
         id="stop400" />
      <stop
         style="stop-opacity:1;stop-color:#8ad9f8"
         offset="1"
         id="stop402" />
    </linearGradient>
    <clipPath
       clipPathUnits="userSpaceOnUse"
       id="clipPath414">
      <path
         d="m 590,117 h 51 v 104 h -51 z"
         id="path412" />
    </clipPath>
    <clipPath
       clipPathUnits="userSpaceOnUse"
       id="clipPath420">
      <path
         d="m 611.449,129.539 h -0.414 v -8.996 h -20.152 v 99.645 h 21.605 v -54.497 c 0,-14.211 5.817,-21.765 12.672,-25 5.195,-2.339 12.258,-3.597 15.586,-3.597 v -19.246 c -5.402,0.179 -20.156,0.539 -29.297,11.691"
         id="path418" />
    </clipPath>
    <clipPath
       clipPathUnits="userSpaceOnUse"
       id="clipPath430">
      <path
         d="M 0,0 H 1418 V 341 H 0 Z"
         id="path428" />
    </clipPath>
    <clipPath
       clipPathUnits="userSpaceOnUse"
       id="clipPath440">
      <path
         d="m 611.449,129.539 h -0.414 v -8.996 h -20.152 v 99.645 h 21.605 v -54.497 c 0,-14.211 5.817,-21.765 12.672,-25 5.195,-2.339 12.258,-3.597 15.586,-3.597 v -19.246 c -5.402,0.179 -20.156,0.539 -29.297,11.691"
         id="path438" />
    </clipPath>
    <linearGradient
       x1="0"
       y1="0"
       x2="1"
       y2="0"
       gradientUnits="userSpaceOnUse"
       gradientTransform="matrix(0,-102.34068,118.21974,0,615.81247,220.18868)"
       spreadMethod="pad"
       id="linearGradient462">
      <stop
         style="stop-opacity:1;stop-color:#2f3792"
         offset="0"
         id="stop444" />
      <stop
         style="stop-opacity:1;stop-color:#344ca7"
         offset="0.371368"
         id="stop446" />
      <stop
         style="stop-opacity:1;stop-color:#344ca7"
         offset="0.385291"
         id="stop448" />
      <stop
         style="stop-opacity:1;stop-color:#283176"
         offset="0.488231"
         id="stop450" />
      <stop
         style="stop-opacity:1;stop-color:#283176"
         offset="0.50998"
         id="stop452" />
      <stop
         style="stop-opacity:1;stop-color:#3871c1"
         offset="0.510404"
         id="stop454" />
      <stop
         style="stop-opacity:1;stop-color:#3871c1"
         offset="0.512092"
         id="stop456" />
      <stop
         style="stop-opacity:1;stop-color:#8ad9f8"
         offset="0.880318"
         id="stop458" />
      <stop
         style="stop-opacity:1;stop-color:#8ad9f8"
         offset="1"
         id="stop460" />
    </linearGradient>
    <clipPath
       clipPathUnits="userSpaceOnUse"
       id="clipPath472">
      <path
         d="M 651,117 H 774 V 223 H 651 Z"
         id="path470" />
    </clipPath>
    <clipPath
       clipPathUnits="userSpaceOnUse"
       id="clipPath478">
      <path
         d="m 651.336,170.727 c 0,26.257 22.23,51.98 61.082,51.98 15.582,0 30.75,-5.758 39.062,-17.984 h 0.415 v 15.465 h 21.609 v -99.645 h -21.609 v 14.031 h -0.415 c -8.312,-10.969 -23.066,-16.726 -39.062,-16.726 -41.348,0 -61.082,28.597 -61.082,52.879 m 21.605,-0.18 c 0,-15.649 12.883,-35.613 39.477,-35.613 22.23,0 39.891,14.39 39.891,35.613 0,19.062 -17.454,35.07 -40.102,35.07 -22.852,0 -39.266,-17.082 -39.266,-35.07"
         id="path476" />
    </clipPath>
    <clipPath
       clipPathUnits="userSpaceOnUse"
       id="clipPath488">
      <path
         d="M 0,0 H 1418 V 341 H 0 Z"
         id="path486" />
    </clipPath>
    <clipPath
       clipPathUnits="userSpaceOnUse"
       id="clipPath498">
      <path
         d="m 651.336,170.727 c 0,26.257 22.23,51.98 61.082,51.98 15.582,0 30.75,-5.758 39.062,-17.984 h 0.415 v 15.465 h 21.609 v -99.645 h -21.609 v 14.031 h -0.415 c -8.312,-10.969 -23.066,-16.726 -39.062,-16.726 -41.348,0 -61.082,28.597 -61.082,52.879 m 21.605,-0.18 c 0,-15.649 12.883,-35.613 39.477,-35.613 22.23,0 39.891,14.39 39.891,35.613 0,19.062 -17.454,35.07 -40.102,35.07 -22.852,0 -39.266,-17.082 -39.266,-35.07"
         id="path496" />
    </clipPath>
    <linearGradient
       x1="0"
       y1="0"
       x2="1"
       y2="0"
       gradientUnits="userSpaceOnUse"
       gradientTransform="matrix(0,-104.85811,121.12777,0,712.41842,222.70611)"
       spreadMethod="pad"
       id="linearGradient520">
      <stop
         style="stop-opacity:1;stop-color:#2f3792"
         offset="0"
         id="stop502" />
      <stop
         style="stop-opacity:1;stop-color:#344ca7"
         offset="0.371368"
         id="stop504" />
      <stop
         style="stop-opacity:1;stop-color:#344ca7"
         offset="0.385291"
         id="stop506" />
      <stop
         style="stop-opacity:1;stop-color:#283176"
         offset="0.488231"
         id="stop508" />
      <stop
         style="stop-opacity:1;stop-color:#283176"
         offset="0.50998"
         id="stop510" />
      <stop
         style="stop-opacity:1;stop-color:#3871c1"
         offset="0.510404"
         id="stop512" />
      <stop
         style="stop-opacity:1;stop-color:#3871c1"
         offset="0.512092"
         id="stop514" />
      <stop
         style="stop-opacity:1;stop-color:#8ad9f8"
         offset="0.880318"
         id="stop516" />
      <stop
         style="stop-opacity:1;stop-color:#8ad9f8"
         offset="1"
         id="stop518" />
    </linearGradient>
    <clipPath
       clipPathUnits="userSpaceOnUse"
       id="clipPath530">
      <path
         d="m 801.332,87.09 h 21.605 v 133.098 h -21.605 z"
         id="path528" />
    </clipPath>
    <clipPath
       clipPathUnits="userSpaceOnUse"
       id="clipPath540">
      <path
         d="M 0,0 H 1418 V 341 H 0 Z"
         id="path538" />
    </clipPath>
    <clipPath
       clipPathUnits="userSpaceOnUse"
       id="clipPath550">
      <path
         d="m 801.332,87.09 h 21.605 v 133.098 h -21.605 z"
         id="path548" />
    </clipPath>
    <linearGradient
       x1="0"
       y1="0"
       x2="1"
       y2="0"
       gradientUnits="userSpaceOnUse"
       gradientTransform="matrix(0,-133.099,153.75049,0,812.13468,220.18868)"
       spreadMethod="pad"
       id="linearGradient572">
      <stop
         style="stop-opacity:1;stop-color:#bf1b2c"
         offset="0"
         id="stop554" />
      <stop
         style="stop-opacity:1;stop-color:#ed1c24"
         offset="0.371368"
         id="stop556" />
      <stop
         style="stop-opacity:1;stop-color:#ed1c24"
         offset="0.385291"
         id="stop558" />
      <stop
         style="stop-opacity:1;stop-color:#f36089"
         offset="0.488583"
         id="stop560" />
      <stop
         style="stop-opacity:1;stop-color:#f36089"
         offset="0.510406"
         id="stop562" />
      <stop
         style="stop-opacity:1;stop-color:#ed1c24"
         offset="0.511728"
         id="stop564" />
      <stop
         style="stop-opacity:1;stop-color:#ed1c24"
         offset="0.516984"
         id="stop566" />
      <stop
         style="stop-opacity:1;stop-color:#ed1c24"
         offset="0.880318"
         id="stop568" />
      <stop
         style="stop-opacity:1;stop-color:#ed1c24"
         offset="1"
         id="stop570" />
    </linearGradient>
    <clipPath
       clipPathUnits="userSpaceOnUse"
       id="clipPath582">
      <path
         d="M 844,117 H 967 V 223 H 844 Z"
         id="path580" />
    </clipPath>
    <clipPath
       clipPathUnits="userSpaceOnUse"
       id="clipPath588">
      <path
         d="m 844.75,170.727 c 0,26.257 22.23,51.98 61.082,51.98 15.582,0 30.754,-5.758 39.063,-17.984 h 0.414 v 15.465 h 21.609 v -99.645 h -21.609 v 14.031 h -0.414 c -8.309,-10.969 -23.063,-16.726 -39.063,-16.726 -41.348,0 -61.082,28.597 -61.082,52.879 m 21.605,-0.18 c 0,-15.649 12.883,-35.613 39.477,-35.613 22.23,0 39.895,14.39 39.895,35.613 0,19.062 -17.454,35.07 -40.102,35.07 -22.855,0 -39.27,-17.082 -39.27,-35.07"
         id="path586" />
    </clipPath>
    <clipPath
       clipPathUnits="userSpaceOnUse"
       id="clipPath598">
      <path
         d="M 0,0 H 1418 V 341 H 0 Z"
         id="path596" />
    </clipPath>
    <clipPath
       clipPathUnits="userSpaceOnUse"
       id="clipPath608">
      <path
         d="m 844.75,170.727 c 0,26.257 22.23,51.98 61.082,51.98 15.582,0 30.754,-5.758 39.063,-17.984 h 0.414 v 15.465 h 21.609 v -99.645 h -21.609 v 14.031 h -0.414 c -8.309,-10.969 -23.063,-16.726 -39.063,-16.726 -41.348,0 -61.082,28.597 -61.082,52.879 m 21.605,-0.18 c 0,-15.649 12.883,-35.613 39.477,-35.613 22.23,0 39.895,14.39 39.895,35.613 0,19.062 -17.454,35.07 -40.102,35.07 -22.855,0 -39.27,-17.082 -39.27,-35.07"
         id="path606" />
    </clipPath>
    <linearGradient
       x1="0"
       y1="0"
       x2="1"
       y2="0"
       gradientUnits="userSpaceOnUse"
       gradientTransform="matrix(0,-104.85811,121.12777,0,905.83431,222.70611)"
       spreadMethod="pad"
       id="linearGradient630">
      <stop
         style="stop-opacity:1;stop-color:#bf1b2c"
         offset="0"
         id="stop612" />
      <stop
         style="stop-opacity:1;stop-color:#ed1c24"
         offset="0.371368"
         id="stop614" />
      <stop
         style="stop-opacity:1;stop-color:#ed1c24"
         offset="0.385291"
         id="stop616" />
      <stop
         style="stop-opacity:1;stop-color:#f36089"
         offset="0.488583"
         id="stop618" />
      <stop
         style="stop-opacity:1;stop-color:#f36089"
         offset="0.510406"
         id="stop620" />
      <stop
         style="stop-opacity:1;stop-color:#ed1c24"
         offset="0.511728"
         id="stop622" />
      <stop
         style="stop-opacity:1;stop-color:#ed1c24"
         offset="0.516984"
         id="stop624" />
      <stop
         style="stop-opacity:1;stop-color:#ed1c24"
         offset="0.880318"
         id="stop626" />
      <stop
         style="stop-opacity:1;stop-color:#ed1c24"
         offset="1"
         id="stop628" />
    </linearGradient>
    <clipPath
       clipPathUnits="userSpaceOnUse"
       id="clipPath640">
      <path
         d="m 995,87 h 122 V 223 H 995 Z"
         id="path638" />
    </clipPath>
    <clipPath
       clipPathUnits="userSpaceOnUse"
       id="clipPath646">
      <path
         d="m 995.785,87.09 v 133.098 h 21.399 v -14.387 h 0.414 c 11.843,13.668 29.504,16.906 40.101,16.906 33.656,0 59.215,-23.562 59.215,-52.34 0,-30.758 -29.09,-52.519 -59.629,-52.519 -15.582,0 -30.129,5.214 -39.476,16.547 h -0.414 V 87.09 Z m 20.985,82.914 c 0,-17.621 15.585,-35.07 39.265,-35.07 22.653,0 39.27,16.726 39.27,35.433 0,19.785 -18.489,35.25 -39.27,35.25 -19.32,0 -39.265,-13.125 -39.265,-35.613"
         id="path644" />
    </clipPath>
    <clipPath
       clipPathUnits="userSpaceOnUse"
       id="clipPath656">
      <path
         d="M 0,0 H 1418 V 341 H 0 Z"
         id="path654" />
    </clipPath>
    <clipPath
       clipPathUnits="userSpaceOnUse"
       id="clipPath666">
      <path
         d="m 995.785,87.09 v 133.098 h 21.399 v -14.387 h 0.414 c 11.843,13.668 29.504,16.906 40.101,16.906 33.656,0 59.215,-23.562 59.215,-52.34 0,-30.758 -29.09,-52.519 -59.629,-52.519 -15.582,0 -30.129,5.214 -39.476,16.547 h -0.414 V 87.09 Z m 20.985,82.914 c 0,-17.621 15.585,-35.07 39.265,-35.07 22.653,0 39.27,16.726 39.27,35.433 0,19.785 -18.489,35.25 -39.27,35.25 -19.32,0 -39.265,-13.125 -39.265,-35.613"
         id="path664" />
    </clipPath>
    <linearGradient
       x1="0"
       y1="0"
       x2="1"
       y2="0"
       gradientUnits="userSpaceOnUse"
       gradientTransform="matrix(0,-135.61644,156.65853,0,1056.3492,222.70611)"
       spreadMethod="pad"
       id="linearGradient688">
      <stop
         style="stop-opacity:1;stop-color:#bf1b2c"
         offset="0"
         id="stop670" />
      <stop
         style="stop-opacity:1;stop-color:#ed1c24"
         offset="0.371368"
         id="stop672" />
      <stop
         style="stop-opacity:1;stop-color:#ed1c24"
         offset="0.385291"
         id="stop674" />
      <stop
         style="stop-opacity:1;stop-color:#f36089"
         offset="0.488583"
         id="stop676" />
      <stop
         style="stop-opacity:1;stop-color:#f36089"
         offset="0.510406"
         id="stop678" />
      <stop
         style="stop-opacity:1;stop-color:#ed1c24"
         offset="0.511728"
         id="stop680" />
      <stop
         style="stop-opacity:1;stop-color:#ed1c24"
         offset="0.516984"
         id="stop682" />
      <stop
         style="stop-opacity:1;stop-color:#ed1c24"
         offset="0.880318"
         id="stop684" />
      <stop
         style="stop-opacity:1;stop-color:#ed1c24"
         offset="1"
         id="stop686" />
    </linearGradient>
    <clipPath
       clipPathUnits="userSpaceOnUse"
       id="clipPath702">
      <path
         d="M 0,0 H 1418 V 341 H 0 Z"
         id="path700" />
    </clipPath>
  </defs>
  <g
     id="g140"
     transform="matrix(1.3333333,0,0,1.3333333,0,1.2005249e-5)">
    <g
       id="g142" />
    <g
       id="g144">
      <g
         id="g146"
         clip-path="url(#clipPath150)">
        <g
           id="g152"
           clip-path="url(#clipPath156)">
          <g
             id="g158">
            <g
               id="g160">
              <g
                 id="g162"
                 clip-path="url(#clipPath166)">
                <g
                   id="g168">
                  <g
                     id="g170">
                    <g
                       id="g172"
                       clip-path="url(#clipPath176)">
                      <g
                         id="g178">
                        <path
                           d="m 46.402,167.59 c 0,74.523 68.223,134.969 152.403,134.969 52.418,0 98.648,-23.442 126.062,-59.145 h -54.66 c -19.605,16.477 -45.633,26.504 -74.172,26.504 -9.742,0 -19.176,-1.156 -28.176,-3.371 C 120.5,255.012 85.59,215.055 85.59,167.57 c 0,-2.648 0.121,-5.273 0.312,-7.879 v -0.019 c 1.168,-14.141 5.446,-27.473 12.176,-39.402 18.438,-32.704 55.379,-55.028 97.957,-55.028 30.664,0 58.387,11.555 78.399,30.242 h 53.203 C 300.629,57.695 253.012,32.598 198.805,32.598 114.625,32.598 46.402,93.043 46.402,167.59"
                           style="fill:url(#linearGradient198);stroke:none"
                           id="path200" />
                      </g>
                    </g>
                  </g>
                </g>
              </g>
            </g>
          </g>
        </g>
      </g>
    </g>
    <g
       id="g202">
      <g
         id="g204"
         clip-path="url(#clipPath208)">
        <g
           id="g210">
          <g
             id="g212">
            <g
               id="g214"
               clip-path="url(#clipPath218)">
              <g
                 id="g220">
                <g
                   id="g222">
                  <g
                     id="g224">
                    <g
                       id="g226"
                       clip-path="url(#clipPath230)">
                      <g
                         id="g232">
                        <path
                           d="m 267.961,225.391 c 0,5.746 -2.84,10.914 -7.356,14.531 -0.429,0.332 -0.859,0.664 -1.312,0.973 -0.023,0.019 -0.07,0.043 -0.098,0.058 -1.429,0.973 -3.007,1.801 -4.703,2.461 h 1.121 c -16.425,10.691 -37.25,17.098 -59.937,17.098 -11.223,0 -22.016,-1.571 -32.024,-4.465 -34.242,-9.84 -59.554,-35.039 -63.449,-65.43 12.418,13.602 31.641,22.328 53.231,22.328 10.484,0 20.418,-2.07 29.277,-5.726 l 0.023,-0.024 c 4.633,-1.918 8.977,-4.277 12.965,-7.047 l 0.024,-0.019 c 7.238,-2.875 15.261,-4.469 23.715,-4.469 16.523,0 31.402,6.082 41.835,15.774 0.168,0.144 0.336,0.293 0.481,0.433 0.453,0.438 0.906,0.895 1.336,1.344 0.117,0.125 0.215,0.25 0.336,0.375 2.84,3.285 4.535,7.379 4.535,11.805"
                           style="fill:#ec1d29;fill-opacity:1;fill-rule:nonzero;stroke:none"
                           id="path234" />
                        <path
                           d="m 161.219,184.809 c 0,11.515 -10.77,20.839 -24.047,20.839 -13.301,0 -24.07,-9.324 -24.07,-20.839 0,-11.516 10.769,-20.836 24.07,-20.836 13.277,0 24.047,9.32 24.047,20.836"
                           style="fill:#ec1d29;fill-opacity:1;fill-rule:nonzero;stroke:none"
                           id="path236" />
                        <path
                           d="m 197.254,161.262 c 0,7.176 -6.734,13.008 -15.024,13.008 -8.308,0 -15.019,-5.832 -15.019,-13.008 0,-7.192 6.711,-13 15.019,-13 8.29,0 15.024,5.808 15.024,13"
                           style="fill:#ec1d29;fill-opacity:1;fill-rule:nonzero;stroke:none"
                           id="path238" />
                      </g>
                    </g>
                  </g>
                </g>
              </g>
              <g
                 id="g240">
                <g
                   id="g242"
                   clip-path="url(#clipPath246)">
                  <g
                     id="g248"
                     clip-path="url(#clipPath252)">
                    <g
                       id="g254">
                      <g
                         id="g256">
                        <g
                           id="g258"
                           clip-path="url(#clipPath262)">
                          <g
                             id="g264">
                            <g
                               id="g266">
                              <g
                                 id="g268"
                                 clip-path="url(#clipPath272)">
                                <g
                                   id="g274">
                                <path
                                   d="m 264.496,170.188 c 0,28.238 25.977,52.519 58.594,52.519 17.867,0 44.254,-8.094 55.265,-33.816 h -21.609 c -5.191,8.632 -16.828,16.726 -32.824,16.726 -14.543,0 -32.414,-7.914 -37.817,-27.156 h 95.368 c 0.207,-1.258 0.621,-6.297 0.621,-9.535 -0.207,-29.137 -27.422,-51.078 -58.59,-51.078 -32.41,0 -59.008,22.484 -59.008,52.34 m 58.801,-35.254 c 20.777,0 36.152,14.57 37.191,29.136 h -74.383 c 1.04,-14.566 16.415,-29.136 37.192,-29.136"
                                   style="fill:url(#linearGradient294);stroke:none"
                                   id="path296" />
                                </g>
                              </g>
                            </g>
                          </g>
                        </g>
                      </g>
                    </g>
                  </g>
                </g>
              </g>
              <g
                 id="g298">
                <g
                   id="g300"
                   clip-path="url(#clipPath304)">
                  <g
                     id="g306"
                     clip-path="url(#clipPath310)">
                    <g
                       id="g312">
                      <g
                         id="g314">
                        <g
                           id="g316"
                           clip-path="url(#clipPath320)">
                          <g
                             id="g322">
                            <g
                               id="g324">
                              <g
                                 id="g326"
                                 clip-path="url(#clipPath330)">
                                <g
                                   id="g332">
                                <path
                                   d="m 424.055,131.156 h -0.414 v -10.613 h -20.157 v 99.645 h 21.614 v -54.317 c 0,-19.965 12.254,-30.937 30.332,-30.937 28.672,0 28.672,23.382 28.672,31.117 v 54.137 h 21.609 v -58.997 c -0.211,-11.148 -2.703,-19.062 -7.273,-25.539 -8.309,-11.152 -22.856,-17.804 -40.723,-17.804 -4.57,0 -22.024,0 -33.66,13.308"
                                   style="fill:url(#linearGradient352);stroke:none"
                                   id="path354" />
                                </g>
                              </g>
                            </g>
                          </g>
                        </g>
                      </g>
                    </g>
                  </g>
                </g>
              </g>
              <g
                 id="g356">
                <g
                   id="g358"
                   clip-path="url(#clipPath362)">
                  <g
                     id="g364">
                    <g
                       id="g366">
                      <g
                         id="g368"
                         clip-path="url(#clipPath372)">
                        <g
                           id="g374">
                          <g
                             id="g376">
                            <g
                               id="g378"
                               clip-path="url(#clipPath382)">
                              <g
                                 id="g384">
                                <path
                                   d="m 535.824,87.09 v 33.453 h -15.582 v 17.09 h 15.582 v 82.555 h 21.61 v -82.555 h 18.906 v -17.09 H 557.434 V 87.09 Z"
                                   style="fill:url(#linearGradient404);stroke:none"
                                   id="path406" />
                              </g>
                            </g>
                          </g>
                        </g>
                      </g>
                    </g>
                  </g>
                </g>
              </g>
              <g
                 id="g408">
                <g
                   id="g410"
                   clip-path="url(#clipPath414)">
                  <g
                     id="g416"
                     clip-path="url(#clipPath420)">
                    <g
                       id="g422">
                      <g
                         id="g424">
                        <g
                           id="g426"
                           clip-path="url(#clipPath430)">
                          <g
                             id="g432">
                            <g
                               id="g434">
                              <g
                                 id="g436"
                                 clip-path="url(#clipPath440)">
                                <g
                                   id="g442">
                                <path
                                   d="m 611.449,129.539 h -0.414 v -8.996 h -20.152 v 99.645 h 21.605 v -54.497 c 0,-14.211 5.817,-21.765 12.672,-25 5.195,-2.339 12.258,-3.597 15.586,-3.597 v -19.246 c -5.402,0.179 -20.156,0.539 -29.297,11.691"
                                   style="fill:url(#linearGradient462);stroke:none"
                                   id="path464" />
                                </g>
                              </g>
                            </g>
                          </g>
                        </g>
                      </g>
                    </g>
                  </g>
                </g>
              </g>
              <g
                 id="g466">
                <g
                   id="g468"
                   clip-path="url(#clipPath472)">
                  <g
                     id="g474"
                     clip-path="url(#clipPath478)">
                    <g
                       id="g480">
                      <g
                         id="g482">
                        <g
                           id="g484"
                           clip-path="url(#clipPath488)">
                          <g
                             id="g490">
                            <g
                               id="g492">
                              <g
                                 id="g494"
                                 clip-path="url(#clipPath498)">
                                <g
                                   id="g500">
                                <path
                                   d="m 651.336,170.727 c 0,26.257 22.23,51.98 61.082,51.98 15.582,0 30.75,-5.758 39.062,-17.984 h 0.415 v 15.465 h 21.609 v -99.645 h -21.609 v 14.031 h -0.415 c -8.312,-10.969 -23.066,-16.726 -39.062,-16.726 -41.348,0 -61.082,28.597 -61.082,52.879 m 21.605,-0.18 c 0,-15.649 12.883,-35.613 39.477,-35.613 22.23,0 39.891,14.39 39.891,35.613 0,19.062 -17.454,35.07 -40.102,35.07 -22.852,0 -39.266,-17.082 -39.266,-35.07"
                                   style="fill:url(#linearGradient520);stroke:none"
                                   id="path522" />
                                </g>
                              </g>
                            </g>
                          </g>
                        </g>
                      </g>
                    </g>
                  </g>
                </g>
              </g>
              <g
                 id="g524">
                <g
                   id="g526"
                   clip-path="url(#clipPath530)">
                  <g
                     id="g532">
                    <g
                       id="g534">
                      <g
                         id="g536"
                         clip-path="url(#clipPath540)">
                        <g
                           id="g542">
                          <g
                             id="g544">
                            <g
                               id="g546"
                               clip-path="url(#clipPath550)">
                              <g
                                 id="g552">
                                <path
                                   d="m 801.332,87.09 h 21.605 v 133.098 h -21.605 z"
                                   style="fill:url(#linearGradient572);stroke:none"
                                   id="path574" />
                              </g>
                            </g>
                          </g>
                        </g>
                      </g>
                    </g>
                  </g>
                </g>
              </g>
              <g
                 id="g576">
                <g
                   id="g578"
                   clip-path="url(#clipPath582)">
                  <g
                     id="g584"
                     clip-path="url(#clipPath588)">
                    <g
                       id="g590">
                      <g
                         id="g592">
                        <g
                           id="g594"
                           clip-path="url(#clipPath598)">
                          <g
                             id="g600">
                            <g
                               id="g602">
                              <g
                                 id="g604"
                                 clip-path="url(#clipPath608)">
                                <g
                                   id="g610">
                                <path
                                   d="m 844.75,170.727 c 0,26.257 22.23,51.98 61.082,51.98 15.582,0 30.754,-5.758 39.063,-17.984 h 0.414 v 15.465 h 21.609 v -99.645 h -21.609 v 14.031 h -0.414 c -8.309,-10.969 -23.063,-16.726 -39.063,-16.726 -41.348,0 -61.082,28.597 -61.082,52.879 m 21.605,-0.18 c 0,-15.649 12.883,-35.613 39.477,-35.613 22.23,0 39.895,14.39 39.895,35.613 0,19.062 -17.454,35.07 -40.102,35.07 -22.855,0 -39.27,-17.082 -39.27,-35.07"
                                   style="fill:url(#linearGradient630);stroke:none"
                                   id="path632" />
                                </g>
                              </g>
                            </g>
                          </g>
                        </g>
                      </g>
                    </g>
                  </g>
                </g>
              </g>
              <g
                 id="g634">
                <g
                   id="g636"
                   clip-path="url(#clipPath640)">
                  <g
                     id="g642"
                     clip-path="url(#clipPath646)">
                    <g
                       id="g648">
                      <g
                         id="g650">
                        <g
                           id="g652"
                           clip-path="url(#clipPath656)">
                          <g
                             id="g658">
                            <g
                               id="g660">
                              <g
                                 id="g662"
                                 clip-path="url(#clipPath666)">
                                <g
                                   id="g668">
                                <path
                                   d="m 995.785,87.09 v 133.098 h 21.399 v -14.387 h 0.414 c 11.843,13.668 29.504,16.906 40.101,16.906 33.656,0 59.215,-23.562 59.215,-52.34 0,-30.758 -29.09,-52.519 -59.629,-52.519 -15.582,0 -30.129,5.214 -39.476,16.547 h -0.414 V 87.09 Z m 20.985,82.914 c 0,-17.621 15.585,-35.07 39.265,-35.07 22.653,0 39.27,16.726 39.27,35.433 0,19.785 -18.489,35.25 -39.27,35.25 -19.32,0 -39.265,-13.125 -39.265,-35.613"
                                   style="fill:url(#linearGradient688);stroke:none"
                                   id="path690" />
                                </g>
                              </g>
                            </g>
                          </g>
                        </g>
                      </g>
                    </g>
                  </g>
                </g>
              </g>
              <g
                 id="g692">
                <g
                   id="g694">
                  <g
                     id="g696">
                    <g
                       id="g698"
                       clip-path="url(#clipPath702)">
                      <g
                         id="g704">
                        <path
                           d="m 1147.676,219.047 c 0,3.941 -0.481,12.234 -12.457,14.308 v -6.425 c 1.797,-0.625 4.433,-1.453 4.433,-5.809 v -0.933 h -4.433 v -12.649 h 12.457 z"
                           style="fill:#3574c2;fill-opacity:1;fill-rule:nonzero;stroke:none"
                           id="path706" />
                        <path
                           d="m 1167.434,220.188 v -76.727 h 12.937 v 66.461 h 30.785 v 10.266 z"
                           style="fill:#3574c2;fill-opacity:1;fill-rule:nonzero;stroke:none"
                           id="path708" />
                        <path
                           d="m 1231.871,209.922 h 15.453 c 15.567,0 32.696,-6.738 32.696,-27.887 0,-11.613 -8.266,-28.308 -32.461,-28.308 h -15.688 z m -12.933,-66.457 h 28.746 c 18.445,0 29.461,6.113 36.168,14.097 6.347,7.676 9.101,17.004 9.101,24.473 0,10.367 -4.547,21.461 -11.137,27.063 -10.183,8.707 -22.156,11.09 -34.613,11.09 h -28.265 z"
                           style="fill:#3574c2;fill-opacity:1;fill-rule:nonzero;stroke:none"
                           id="path710" />
                        <path
                           d="m 1345.297,187.32 -11.258,-29.343 h -0.238 l -11.379,29.343 z m 14.254,32.868 -9.821,-22.602 h -31.859 l -9.824,22.602 h -13.649 l 33.653,-76.727 h 11.621 l 33.652,76.727 z"
                           style="fill:#3574c2;fill-opacity:1;fill-rule:nonzero;stroke:none"
                           id="path712" />
                      </g>
                    </g>
                  </g>
                </g>
              </g>
            </g>
          </g>
        </g>
      </g>
    </g>
  </g>
</svg>
